_________________________  Visit us at _________________________
  
http://p2pdl.com  ____________________________  http://p2pdl.com

 
http://www.shotpix.com/images/91638796877452737059.jpg


Inna - More Than Friends (Ft. Daddy Yankee) 2013 M4A+MP4 (1080p) x264 [VX] [P2PDL]


                            1080p Full HD MP4 Video
                                      +
                             128 Kbps/VBR M4A Audio

General
Complete name                  : Inna Feat. Daddy Yankee - More Than Friends (1080p) x264 [VX] [P2PDL].mp4
Format                         : MPEG-4
Format profile                 : Base Media / Version 2
Codec ID                       : mp42
File size                      : 45.5 MiB
Duration                       : 4mn 21s
Overall bit rate mode          : Variable
Overall bit rate               : 1 461 Kbps

Video
ID                             : 1
Format                         : AVC
Format/Info                    : Advanced Video Codec
Format profile                 : High@L4.0
Width                          : 1 920 pixels
Height                         : 800 pixels
Display aspect ratio           : 2.40:1
Frame rate mode                : Constant
Frame rate                     : 25.000 fps
Bits/(Pixel*Frame)             : 0.035
Stream size                    : 41.4 MiB (91%)
Writing library                : x264 core 129

Audio
Format                         : AAC
Bit rate mode                  : Variable
Bit rate                       : 127 Kbps
Channel(s)                     : 2 channels
Channel positions              : Front: L R
Sampling rate                  : 48.0 KHz
Stream size                    : 3.95 MiB (9%)

Subtitles                      : No

Screens:
 
http://www.shotpix.com/images/99868536579330868234.jpg 
http://www.shotpix.com/images/10015237375273272623.jpg

Thumbs:
 
http://www.shotpix.com/images/58777776926649629941.jpg
------------------------------------------------------------------------

Notes:

* Recommended to use latest version VLC Media Player.
* Install shark007 codecs in case of any kind of problem in playback (For non-VLC Media Player users).
* Alternatively, install Core AVC codecs, the fastest decoder that there is coupled with Community Center Codec Pack and play on Windows Media Player Classic.

Greets to: VYTO, a2zRG, MusiK_KinG, Kuroyukihime, Caveman, Ash968, Neon, TwentyForty, Masta, TorDigger and staff members at ExtraTorrent, TPB, H33T, KAT, 1337x, PublicHD, Ahashare, TorrentMafia, Limetorrents, BTScene, P2PDL, and all others

Encoder Notes: Looking For Early Access To Anything You Can Provide DVDScr, R5, DVDRips, BluRay, Direct Audio, Early Music
Releases, Seedboxes, Links, Dedicated Servers anything u can provide, Advance / Promo CDs/DVDs. If You Got anything to
offer contact me at "prg@hush.com".